<?xml version="1.0" encoding="utf-8"?>
<svg version="1.1" id="katman_1" xmlns="http://www.w3.org/2000/svg" xmlns:xlink="http://www.w3.org/1999/xlink" x="0px" y="0px"
	 width="700px" height="700px" viewBox="0 0 700 700" style="enable-background:new 0 0 700 700;" xml:space="preserve">
<style type="text/css">
	.st0{enable-background:new    ;}
	.st1{fill:#79A23C;}
	.st2{fill:#ED729C;}
</style>
<g>
	<path class="st1" d="M200.2,284.5c-0.9-6.9-1.7-13.5-1.6-20.2c0-0.3,0-0.6,0-0.9c0-6.7,0-6.7-6.9-6.7c-1.1,0-2.3,0-3.4,0
		c-1.9,0-4.1,0.1-4.1-2.5c-0.1-2.8,2.3-2.7,4.3-2.7c2.4,0,4.7,0,7.1,0c0.8,0,1.7,0.2,2.5-0.6c-0.7-2.5-2.6-4.4-4-6.6
		c-1.6-2.5-3.4-4.9-5-7.4c-1-1.6-1.6-3.3,0.4-4.6c1.8-1.1,3.1,0,4.1,1.5c1.5,2.2,3,4.4,4.5,6.6c0.6,0.9,1,2.1,2.6,2.4
		c0.8-2.7,1.5-5.5,2.3-8.2c5-16.6,25.3-26.3,40.3-19.3c6.6,3,10.8,8.4,13.8,14.8c4.9,10.6,6.9,21.9,8,33.4
		c0.8,8.4,0.3,16.8,1.3,25.2c1.2,10.8,6.1,19,16.5,23.3c0.7,0.3,1.3,0.5,2,0.8c0.3,0.1,0.6,0,1.4,0c-0.4-13.6-0.1-27,0.6-40.7
		c-2.4,0.1-3.7,1.7-5.4,2.6c-1.6,0.8-3.3,1.8-4.6-0.2c-1.4-2.1,0.1-3.4,1.8-4.5c2.4-1.6,4.8-3.2,7.2-4.7c2-1.2,2.1-2.6,0.4-4.2
		c-3.2-2.9-6.4-5.8-9.6-8.7c-0.8-0.7-1.5-1.4-2.2-2.1c-1.1-1.2-1.6-2.5-0.3-3.8c1.2-1.3,2.6-1.1,3.8-0.1c2.6,2.2,5.1,4.5,7.6,6.7
		c0.7,0.6,1.4,1.2,2.6,2.2c1.2-7.5,2.3-14.6,3.5-22c-3.2-0.5-6.1-0.2-8.9,0c-1,0.1-2,0.2-3.1,0.2c-1.8,0-3.4-0.6-3.4-2.7
		c0-1.9,1.4-2.6,3.1-2.7c3.7-0.2,7.4-0.4,11.1-0.6c0.9-0.1,2,0.2,2.5-0.9c0.5-1.1-0.5-1.7-1.1-2.3c-4.3-4.6-8.6-9.1-12.9-13.7
		c-1.4-1.4-2.5-3.1-0.6-4.8c1.7-1.5,3.2-0.4,4.5,1c3.9,4.1,7.7,8.1,12.1,12.7c3.5-11.6,7.4-22.3,13.7-32.3c-3.1-2.8-6.8-4.6-10.1-7
		c-1.8-1.3-3.7-2.5-5.6-3.8c-1.2-0.9-1.7-2.1-0.9-3.5c0.9-1.4,2.2-1.7,3.7-0.8c3.2,2,6.4,4.1,9.6,6.2c1.3,0.8,2.6,1.6,4.1,2.5
		c0.5-2.6-0.8-4.6-1.2-6.8c-0.5-2.8-1.4-5.6-2-8.4c-0.3-1.6-0.2-3.2,1.8-3.7c1.9-0.5,2.8,0.7,3.3,2.4c1.2,4.3,2.3,8.7,3.6,13.7
		c17.2-17.5,36.7-20.9,58.8-11.2c1.1-2.6,0.8-5.5,1.3-8.3c0.3-2,0.7-3.9,3.2-3.6c2.5,0.4,2.4,2.4,2.1,4.3c-0.4,3.4-0.8,6.7-1,10.1
		c-0.2,2.9,0.9,3.6,3.5,2.2c3.4-1.9,6.8-3.8,10.2-5.7c1.6-0.9,3.2-1.2,4.3,0.7c1,1.8-0.1,3.1-1.6,4c-1.8,1-3.6,2-5.4,3
		c-1.8,1-3.5,2.1-5.6,3.3c6.8,8.5,11.8,17.7,15.7,28c2.1-2.7,3-5.4,4.2-8c0.9-1.8,1.9-3.5,4.1-2.5c2.4,1,1.6,3,0.8,4.7
		c-1.8,3.9-3.6,7.8-5.5,11.7c-1.4,2.8,0,5.2,0.8,7.7c0.4,1.2,1.5,0.8,2.4,0.5c2.3-0.7,4.5-1.5,6.8-2.1c1.7-0.5,3.7-0.7,4.3,1.6
		c0.5,2-0.9,2.9-2.6,3.5c-3,1-7.1,0.9-8.6,3.4c-1.4,2.4,0.7,5.9,1.2,8.9c0.3,2.1,0.8,4.2,1.2,6.5c2.6-0.6,4.2-2.6,6.1-3.8
		c1.7-1.1,3.5-2.7,5.1-0.5c1.7,2.3-0.3,3.7-2,5c-1.9,1.4-3.7,2.8-5.8,4.4c2.2,1.2,4.3,1.2,6.3,1.6c1.1,0.2,2.2,0.3,3.3,0.5
		c1.7,0.3,3,1.2,2.8,3.1c-0.2,2-1.8,2.4-3.4,2.2c-2.3-0.3-4.7-0.7-7-1c-1.1-0.2-2.2-0.5-3.8,0c0.5,6.3,1,12.6,1.5,19.4
		c3-1.9,4.5-4.2,6.6-6c1.4-1.3,2.9-2.8,4.7-1c1.9,1.9,0.4,3.6-1,5c-2.9,2.9-5.8,5.8-8.7,8.7c-0.7,0.7-1.6,1.5-1.1,2.6
		c0.4,1,1.5,1,2.4,1.2c2.7,0.5,5.5,0.9,8.2,1.4c2,0.4,5,0.2,4.4,3.4c-0.6,3.5-3.4,2.1-5.5,1.8c-3-0.4-6-1-9.5-1.5
		c-0.6,9.8-0.2,19.4-1.1,29.4c4-1.2,6.9-3.2,10-4.7c1.8-0.9,3.6-1.7,4.8,0.6c1.1,2.2-0.6,3.3-2.4,4.2c-3.6,1.8-7.1,3.7-10.7,5.5
		c-1.1,0.6-2.2,1.2-2.2,2.7c0.1,1.4,1.2,1.8,2.2,2.3c2.1,1.1,4.2,2.2,6.2,3.4c1.5,0.8,2.5,2,1.6,3.8c-0.9,1.8-2.5,1.6-4,0.9
		c-2-1-4-2-6.2-3.1c-1.3,3.4-1.2,6.8-1.5,10.1c-1.5,13.8-3.5,27.5-6.1,41.1c-0.5,2.7,0.3,3.7,2.8,4.2c4.5,0.9,9,1.8,13.7,1.1
		c4.8-0.7,8-3.4,10-7.7c0.8-1.8,0.4-2.6-1.5-3c-3-0.6-6-1.5-9-2.2c-2-0.4-3.3-1.3-2.9-3.5c0.4-2.1,2.1-1.9,3.7-1.6
		c3.1,0.6,6.1,1.3,9.5,2c-0.2-2.5-1.5-4.2-2.2-6c-0.6-1.4-1.5-2.7-2.1-4.1c-0.8-1.8-2-3.9,0.4-5.1c2.3-1.1,3.5,0.8,4.4,2.6
		c1,1.9,1.9,3.8,3.1,6c1.4-2,1.5-4,2-5.8c2.9-10.1,7.2-19.4,14-27.5c2.8-3.3,5.9-6.3,9.7-8.4c10.1-5.6,21.1-3.1,27.7,6.4
		c5.4,7.8,6.9,16.5,6.4,25.8c-0.2,3.1-0.6,6.3-0.9,9.5c2.7,0,4.4-1.5,6.3-2.3c1.2-0.5,2.4-1.1,3.6-1.7c1.7-0.7,3.3-0.9,4.2,1
		c0.9,1.9-0.3,3.1-1.9,3.9c-2.7,1.3-5.4,2.5-8.1,3.8c-0.9,0.4-1.8,0.9-3.4,1.8c2.7,1.1,4.8,1.9,6.8,2.7c1,0.4,2.1,0.8,3.1,1.3
		c1.5,0.6,2.4,1.7,1.9,3.4c-0.6,1.8-2.2,2.1-3.8,1.6c-2.8-0.9-5.6-2-8.4-3.2c-2.1-0.9-3.3-0.8-4,1.8c-1.6,6-4.3,11.5-7.2,17.4
		c3.6,1,6.9,1.8,10.1,2.7c1.4,0.4,2.8,0.7,4.2,1.1c1.6,0.5,2.5,1.5,2.1,3.2c-0.4,1.7-1.8,2.2-3.4,1.9c-2.7-0.6-5.4-1.3-8.1-2
		c-1.3-0.3-2.6-0.6-4.3-1c0.5,2.3,1.9,3.7,2.9,5.2c1,1.5,1.4,3.1-0.3,4.3c-1.8,1.2-3.1,0.2-4.1-1.3c-1.3-1.9-2.7-3.8-4.4-6.2
		c-9.3,12.2-21.1,20.3-35.7,24.2c-14.4,3.8-28.7,3.1-43.1-1.6c-1.2,5.1-0.7,9.8-0.2,14.8c1.5-1.5,3-3,4.5-4.4
		c1.5-1.4,3.1-3.8,5.4-1.6c2.3,2.2,0,3.8-1.5,5.3c-2.5,2.5-5,4.9-7.4,7.4c-0.9,0.9-2.3,1.7-1.9,3.3c0.4,1.7,2.1,1.4,3.3,1.6
		c2.7,0.5,5.5,0.9,8.2,1.4c1.9,0.4,3.9,0.8,3.5,3.4c-0.5,2.6-2.6,2.2-4.5,1.9c-3.4-0.5-6.8-1.1-10-1.6c-1,1.2-0.8,2.2-0.8,3.2
		c-0.4,14.1-1,28.1-1.2,42.2c-0.1,9-4.6,14.8-12.3,18.5c-6.5,3.1-13.4,4.6-20.5,5.2c-17.4,1.6-34.3-0.2-50.2-7.8
		c-5.3-2.5-10.2-5.7-14.2-10.2c-1.7-1.8-2.4-3.8-2.5-6.4c-1-22.8-1.9-45.5-2-68.3c0-3-0.9-4.2-3.8-4.6c-3.4-0.5-6.8-1.4-10.2-2.1
		c-1.8-0.4-3.3-1.1-2.9-3.2c0.3-2.2,2.1-2.3,3.8-2c2.8,0.5,5.6,1.2,8.4,1.7c1.3,0.2,2.5,0.8,3.9,0.3c0-7,0-14,0-21.1
		c-2.9-0.1-5.2,0.7-7.7,1c-1.1,0.2-2.2,0.4-3.3,0.5c-1.5,0.2-3,0-3.4-1.8c-0.4-1.9,0.8-2.9,2.4-3.3c3-0.7,6-1.3,9.1-1.7
		c2.2-0.3,2.9-1.2,2.7-3.4c-0.4-3.5,0.1-7.1-0.8-11.2c-3.1,1.6-5.7,2.9-8.4,4.3c-1,0.5-2,1.1-3,1.5c-1.4,0.5-2.7,0.3-3.5-1.1
		c-0.8-1.6-0.2-2.9,1.2-3.7c2.7-1.5,5.5-2.9,8.2-4.3c0.9-0.5,1.7-1,2.9-1.7c-2.1-1.8-4.6-2.4-6.6-3.6c-1.1-0.6-2.2-1.1-3.3-1.7
		c-1.4-0.8-2.1-2.1-1.3-3.6c0.8-1.6,2.3-1.7,3.7-1.1c2.3,1,4.6,2.2,7,3.3c0.6,0.3,1.2,0.8,2.4,0.4c0-4.7-0.6-9.4-1.5-14.1
		c-0.3-1.5-1.8-0.9-2.9-0.9c-13.1,0.6-25.8-0.9-38-6.2c-15.3-6.6-26.6-17.6-35.2-31.5c-0.6-1-1-2.2-2.4-2.9
		c-1.4,1.9-1.6,4.2-2.5,6.2c-0.7,1.7-1.7,3-3.7,2.4c-2.1-0.6-2-2.4-1.4-4.1c0.5-1.6,1.1-3.1,1.6-4.7c0.5-1.4,1-2.9,1.6-4.9
		c-3.2,0.7-5.6,2.2-8.2,3.2c-1.6,0.6-3.2,1.4-4.8,2.1c-1.7,0.7-3.3,0.7-4.1-1.3c-0.7-1.8,0.4-2.9,1.9-3.6c4.1-1.9,8.2-3.8,12.4-5.5
		c1.8-0.7,2.2-1.6,1.6-3.5c-1.5-4-2.8-8.2-3.9-12.3c-0.5-2-1.6-2.7-3.4-2.9c-2.1-0.2-4.3-0.5-6.4-0.9c-1.8-0.3-3.2-1.2-2.8-3.3
		c0.3-1.9,1.9-2.2,3.6-2.1C195.3,284.1,197.4,284.8,200.2,284.5z"/>
	<path class="st2" d="M341.1,126.4c0.2-3.5,0-6.4,0.6-9.2c1.3-6.5,5.4-10.2,11.5-10.3c5.4-0.1,9.6,3.5,11.1,9.2
		c0.8,3.2,0.7,6.5,0.8,10c1.8-0.4,2.9-1.6,4.2-2.3c4-2.2,8-4.6,12.6-1.6c3.6,2.4,4.9,7.6,3.6,13.1c-5.3,22.2-32.8,32.2-51.1,18.5
		c-6.2-4.6-11-10.1-13.3-17.6c-1.2-4-1.3-7.9,1-11.6c2.2-3.4,4.7-4.4,8.7-3.6C334.6,121.7,337.6,123.9,341.1,126.4z"/>
	<path class="st2" d="M472.7,297.2c0.9-5.7,1.5-12.3,9.7-11c7,1.1,5.7,7.4,6.2,12.3c1.6,0.3,2.6-0.7,3.8-1.2c2.5-1.1,5-1.9,7.2,0.2
		c2.3,2.2,2.6,5,1.7,8c-2.5,7.7-8.2,12-15.5,14.6c-12.7,4.4-25.8-8-26.7-18c-0.3-3,0.3-5.8,3-7.6c2.8-1.8,5.3-0.2,7.7,1.3
		C470.7,296.3,471.3,297.2,472.7,297.2z"/>
	<path class="st2" d="M219.4,188.8c0.3-5.6,0.5-11.9,7.9-11.9c7.2,0,7.5,6.2,7.9,11.7c1.9,0.3,3-1.1,4.3-1.7c5.3-2.3,9,0,9.1,5.8
		c0.1,2.9-0.8,5.5-2.4,7.8c-4.8,7.1-11.2,11.9-20.2,11.3c-8.5-0.6-14.6-5.5-18.6-12.9c-0.5-1-0.9-2.1-1.2-3.2
		c-0.7-3.2-0.8-6.5,2.2-8.7c2.8-2.1,5.6-0.7,8.3,0.9C217.5,188.1,218,188.8,219.4,188.8z"/>
</g>
</svg>
